<svg class="animated" id="freepik_stories-403-error-forbidden" xmlns="http://www.w3.org/2000/svg" viewBox="0 0 500 500"
    version="1.1" xmlns:xlink="http://www.w3.org/1999/xlink" xmlns:svgjs="http://svgjs.com/svgjs">
    <style>
        svg#freepik_stories-403-error-forbidden:not(.animated) .animable {
            opacity: 0;
        }

        svg#freepik_stories-403-error-forbidden.animated #freepik--background-simple--inject-7 {
            animation: 1.5s Infinite linear floating;
            animation-delay: 0s;
        }

        svg#freepik_stories-403-error-forbidden.animated #freepik--Padlock--inject-7 {
            animation: 1s 1 forwards cubic-bezier(.36, -0.01, .5, 1.38) slideLeft, 1.5s Infinite linear shake;
            animation-delay: 0s, 1s;
        }

        svg#freepik_stories-403-error-forbidden.animated #freepik--Character--inject-7 {
            animation: 1s 1 forwards cubic-bezier(.36, -0.01, .5, 1.38) zoomOut;
            animation-delay: 0s;
        }

        svg#freepik_stories-403-error-forbidden.animated #freepik--Text--inject-7 {
            animation: 1.5s Infinite linear heartbeat;
            animation-delay: 0s;
        }

        svg#freepik_stories-403-error-forbidden.animated #freepik--security-barrier--inject-7 {
            animation: 1s 1 forwards cubic-bezier(.36, -0.01, .5, 1.38) zoomOut;
            animation-delay: 0s;
        }

        @keyframes floating {
            0% {
                opacity: 1;
                transform: translateY(0px);
            }

            50% {
                transform: translateY(-10px);
            }

            100% {
                opacity: 1;
                transform: translateY(0px);
            }
        }

        @keyframes slideLeft {
            0% {
                opacity: 0;
                transform: translateX(-30px);
            }

            100% {
                opacity: 1;
                transform: translateX(0);
            }
        }

        @keyframes shake {

            10%,
            90% {
                transform: translate3d(-1px, 0, 0);
            }

            20%,
            80% {
                transform: translate3d(2px, 0, 0);
            }

            30%,
            50%,
            70% {
                transform: translate3d(-4px, 0, 0);
            }

            40%,
            60% {
                transform: translate3d(4px, 0, 0);
            }
        }

        @keyframes zoomOut {
            0% {
                opacity: 0;
                transform: scale(1.5);
            }

            100% {
                opacity: 1;
                transform: scale(1);
            }
        }

        @keyframes heartbeat {
            0% {
                transform: scale(1);
            }

            10% {
                transform: scale(1.1);
            }

            30% {
                transform: scale(1);
            }

            40% {
                transform: scale(1);
            }

            50% {
                transform: scale(1.1);
            }

            60% {
                transform: scale(1);
            }

            100% {
                transform: scale(1);
            }
        }
    </style>
    <g id="freepik--background-simple--inject-7" class="animable" style="transform-origin: 255.948px 260.529px;">
        <path
            d="M55.48,273.73s2.32,72,62.43,120,143.41,51.43,210.84,56,119.23-33.62,127-91.32-43.72-74.64-71.68-140.33S358.64,130.8,299.49,90.4,147.8,74.81,99.29,144,55.48,273.73,55.48,273.73Z"
            style="fill: rgb(0, 210, 210); transform-origin: 255.948px 260.529px;" id="elqoklrvdma1" class="animable">
        </path>
        <g id="elmxogewar1or">
            <path
                d="M55.48,273.73s2.32,72,62.43,120,143.41,51.43,210.84,56,119.23-33.62,127-91.32-43.72-74.64-71.68-140.33S358.64,130.8,299.49,90.4,147.8,74.81,99.29,144,55.48,273.73,55.48,273.73Z"
                style="fill: rgb(255, 255, 255); opacity: 0.7; transform-origin: 255.948px 260.529px;" class="animable">
            </path>
        </g>
    </g>
    <g id="freepik--Padlock--inject-7" class="animable" style="transform-origin: 116.73px 186.435px;">
        <path
            d="M83.61,179.69V153.92c0-18.24,15.16-33.08,33.79-33.08s33.79,14.84,33.79,33.08v25.77h13.47V153.92c0-25.51-21.2-46.27-47.26-46.27s-47.26,20.76-47.26,46.27v25.77Z"
            style="fill: none; stroke: rgb(38, 50, 56); stroke-linecap: round; stroke-linejoin: round; stroke-width: 1.16634px; transform-origin: 117.4px 143.67px;"
            id="eltxmgcnekxi" class="animable"></path>
        <rect x="65.14" y="179.87" width="103.18" height="85.35"
            style="fill: none; stroke: rgb(38, 50, 56); stroke-linecap: round; stroke-linejoin: round; stroke-width: 1.16634px; transform-origin: 116.73px 222.545px;"
            id="eljtfd15vvkkd" class="animable"></rect>
        <path
            d="M127.46,215.32a11.24,11.24,0,0,0-22.47,0,11,11,0,0,0,5.9,9.68L109,244.38h14.45L121.56,225A11,11,0,0,0,127.46,215.32Z"
            style="fill: none; stroke: rgb(38, 50, 56); stroke-linecap: round; stroke-linejoin: round; stroke-width: 1.16634px; transform-origin: 116.225px 224.398px;"
            id="el9ybdl21tkp" class="animable"></path>
    </g>
    <g id="freepik--Character--inject-7" class="animable" style="transform-origin: 203.535px 290.946px;">
        <polygon
            points="232.64 267.99 206.95 266.3 206.95 265.88 203.79 266.09 200.64 265.88 200.64 266.3 174.95 267.99 156 423.79 174.95 423.79 203.16 299.57 204.43 299.57 232.64 423.79 251.59 423.79 232.64 267.99"
            style="fill: rgb(38, 50, 56); stroke: rgb(38, 50, 56); stroke-linecap: round; stroke-linejoin: round; stroke-width: 1.16634px; transform-origin: 203.795px 344.835px;"
            id="elf433mrb9u6o" class="animable"></polygon>
        <path
            d="M156,423.78l-4.63,7.16-14.32,6.32a4.88,4.88,0,0,0-2.52,4.21v5.47h40.84a54.21,54.21,0,0,0,0-8.84c-.42-4.21-.42-14.32-.42-14.32Z"
            style="fill: rgb(76, 76, 76); stroke: rgb(38, 50, 56); stroke-linecap: round; stroke-linejoin: round; stroke-width: 1.16634px; transform-origin: 155.04px 435.36px;"
            id="elvzvdhfsw4s" class="animable"></path>
        <path d="M134.53,442.31v4.63h40.84s.19-2,.19-4.63Z"
            style="fill: rgb(38, 50, 56); stroke: rgb(38, 50, 56); stroke-linecap: round; stroke-linejoin: round; stroke-width: 1.16634px; transform-origin: 155.045px 444.625px;"
            id="elnb45slkirqg" class="animable"></path>
        <path
            d="M251.51,423.78l4.63,7.16,14.32,6.32a4.88,4.88,0,0,1,2.52,4.21v5.47H232.14a54.21,54.21,0,0,1,0-8.84c.42-4.21.42-14.32.42-14.32Z"
            style="fill: rgb(76, 76, 76); stroke: rgb(38, 50, 56); stroke-linecap: round; stroke-linejoin: round; stroke-width: 1.16634px; transform-origin: 252.47px 435.36px;"
            id="elrl6g25ndwmn" class="animable"></path>
        <path d="M273,442.31v4.63H232.14s-.18-2-.19-4.63Z"
            style="fill: rgb(38, 50, 56); stroke: rgb(38, 50, 56); stroke-linecap: round; stroke-linejoin: round; stroke-width: 1.16634px; transform-origin: 252.475px 444.625px;"
            id="eliqkymum10eg" class="animable"></path>
        <path
            d="M164.07,195.51s-30,42.16-30,45.25,4.77,26.95,12.35,29.19,11.79-1.68,13.19-9.54-3.37-19.09-3.37-19.09l14-12.63Z"
            style="fill: rgb(0, 210, 210); stroke: rgb(38, 50, 56); stroke-linecap: round; stroke-linejoin: round; stroke-width: 1.16634px; transform-origin: 152.155px 233.042px;"
            id="eljdq0u68ybr" class="animable"></path>
        <path
            d="M158.25,259.29s8.7-1.41,10.95-.85,3.93,5.9,3.93,5.9.84,7.86-.57,9.54-8.14,3.65-10.94,4.21-8.71-5.89-11-9.82S152.35,257.6,158.25,259.29Z"
            style="fill: rgb(204, 204, 204); stroke: rgb(38, 50, 56); stroke-linecap: round; stroke-linejoin: round; stroke-width: 1.16634px; transform-origin: 161.673px 268.216px;"
            id="elokffirdohj" class="animable"></path>
        <polygon
            points="170.38 193.6 164.07 195.51 174.01 261.86 233.09 261.86 242.08 195.89 234.05 192.83 204.41 186.33 170.38 193.6"
            style="fill: rgb(0, 210, 210); stroke: rgb(38, 50, 56); stroke-linecap: round; stroke-linejoin: round; stroke-width: 1.16634px; transform-origin: 203.075px 224.095px;"
            id="el53e52mpn4z8" class="animable"></polygon>
        <polygon points="236.34 215.78 235.01 225.34 224.68 227.82 214.16 223.62 214.93 215.01 236.34 215.78"
            style="fill: rgb(38, 50, 56); stroke: rgb(38, 50, 56); stroke-linecap: round; stroke-linejoin: round; stroke-width: 1.16634px; transform-origin: 225.25px 221.415px;"
            id="elxhehndxjopo" class="animable"></polygon>
        <circle cx="225.35" cy="223.52" r="1.82"
            style="fill: rgb(76, 76, 76); stroke: rgb(38, 50, 56); stroke-linecap: round; stroke-linejoin: round; stroke-width: 1.16634px; transform-origin: 225.35px 223.52px;"
            id="eli64ntgj6xl8" class="animable"></circle>
        <polygon
            points="198.1 198.57 203.65 205.07 196.57 250.19 204.03 262.05 212.83 249.62 205.37 205.26 211.68 199.14 204.99 190.54 198.1 198.57"
            style="fill: rgb(38, 50, 56); stroke: rgb(38, 50, 56); stroke-linecap: round; stroke-linejoin: round; stroke-width: 1.16634px; transform-origin: 204.7px 226.295px;"
            id="el3786ixywqac" class="animable"></polygon>
        <polygon points="192.75 187.29 167.32 193.6 168.09 196.66 192.94 189.77 192.75 187.29"
            style="fill: rgb(38, 50, 56); stroke: rgb(38, 50, 56); stroke-linecap: round; stroke-linejoin: round; stroke-width: 1.16634px; transform-origin: 180.13px 191.975px;"
            id="elvahwag5c73s" class="animable"></polygon>
        <polygon points="213.59 186.52 239.02 192.83 238.26 195.89 213.4 189.01 213.59 186.52"
            style="fill: rgb(38, 50, 56); stroke: rgb(38, 50, 56); stroke-linecap: round; stroke-linejoin: round; stroke-width: 1.16634px; transform-origin: 226.21px 191.205px;"
            id="elra5puvbd29" class="animable"></polygon>
        <path d="M239,192.83s9.62,2.17,15.51,5.54,7.3,10.95,3.93,19.37-13.75,7.3-18.52,5-6.18-10.66-5.34-14.31"
            style="fill: rgb(0, 210, 210); stroke: rgb(38, 50, 56); stroke-linecap: round; stroke-linejoin: round; stroke-width: 1.16634px; transform-origin: 247.293px 208.614px;"
            id="el8k7djc51svo" class="animable"></path>
        <polygon
            points="193.9 184.04 191.03 185.95 191.79 205.26 204.22 196.47 217.22 205.45 218.37 186.33 214.93 183.46 193.9 184.04"
            style="fill: rgb(0, 210, 210); stroke: rgb(38, 50, 56); stroke-linecap: round; stroke-linejoin: round; stroke-width: 1.16634px; transform-origin: 204.7px 194.455px;"
            id="el0dk8f5t51qbk" class="animable"></polygon>
        <path
            d="M219,161.07s7.06-1.72,8.39-8.78S216,136.64,207.18,135.12s-21.75,7.63-23.85,13.93,6.1,12.59,14.88,13.93S219,161.07,219,161.07Z"
            style="fill: rgb(38, 50, 56); stroke: rgb(38, 50, 56); stroke-linecap: round; stroke-linejoin: round; stroke-width: 1.16634px; transform-origin: 205.242px 149.128px;"
            id="elam4mgjloxwa" class="animable"></path>
        <path d="M192.68,162.22s-3.82-5.92-4.77-.77,3.05,7.44,4.77,7.25S192.68,162.22,192.68,162.22Z"
            style="fill: rgb(204, 204, 204); stroke: rgb(38, 50, 56); stroke-linecap: round; stroke-linejoin: round; stroke-width: 1.16634px; transform-origin: 190.605px 164.028px;"
            id="elf8z7aajpo8g" class="animable"></path>
        <path d="M217.49,162.22s3.82-5.92,4.77-.77-3,7.44-4.77,7.25S217.49,162.22,217.49,162.22Z"
            style="fill: rgb(204, 204, 204); stroke: rgb(38, 50, 56); stroke-linecap: round; stroke-linejoin: round; stroke-width: 1.16634px; transform-origin: 219.554px 164.028px;"
            id="el69hbefoz83e" class="animable"></path>
        <polygon points="193.52 173.9 193.52 186.52 204.22 196.47 216.27 186.14 216.27 174.29 193.52 173.9"
            style="fill: rgb(204, 204, 204); stroke: rgb(38, 50, 56); stroke-linecap: round; stroke-linejoin: round; stroke-width: 1.16634px; transform-origin: 204.895px 185.185px;"
            id="elyddp1zjbty" class="animable"></polygon>
        <path
            d="M191.92,158.4s-.58,11.83.38,15.65,7.25,11.83,12.21,13.55,11.83-8.59,13.36-12,.95-17.94.95-17.94-2.09-5-6.29-6.48S195.35,147,191.92,158.4Z"
            style="fill: rgb(204, 204, 204); stroke: rgb(38, 50, 56); stroke-linecap: round; stroke-linejoin: round; stroke-width: 1.16634px; transform-origin: 205.337px 168.795px;"
            id="elq4eeooj58l" class="animable"></path>
        <path d="M199.85,164.68c0,.9-.41,1.63-.92,1.63s-.92-.73-.92-1.63.41-1.63.92-1.63S199.85,163.78,199.85,164.68Z"
            style="fill: rgb(38, 50, 56); transform-origin: 198.93px 164.68px;" id="eljg9d59p3jyr" class="animable">
        </path>
        <path d="M211.56,164.68c0,.9-.41,1.63-.92,1.63s-.92-.73-.92-1.63.41-1.63.92-1.63S211.56,163.78,211.56,164.68Z"
            style="fill: rgb(38, 50, 56); transform-origin: 210.64px 164.68px;" id="elvr3enp2ucv" class="animable">
        </path>
        <path
            d="M201.84,169.24a1.28,1.28,0,1,0,0,2.49,1.74,1.74,0,0,0,1.11-.37,3.21,3.21,0,0,0,4.82.08,1.8,1.8,0,0,0,1,.29,1.28,1.28,0,1,0,0-2.49"
            style="fill: rgb(204, 204, 204); stroke: rgb(38, 50, 56); stroke-linecap: round; stroke-linejoin: round; stroke-width: 1.16634px; transform-origin: 205.305px 170.848px;"
            id="elr6wc7t2q1s9" class="animable"></path>
        <line x1="203.36" y1="177.07" x2="207.35" y2="177.07"
            style="fill: rgb(204, 204, 204); stroke: rgb(38, 50, 56); stroke-linecap: round; stroke-linejoin: round; stroke-width: 1.16634px; transform-origin: 205.355px 177.07px;"
            id="elo1ssvg57kfc" class="animable"></line>
        <path d="M191.48,161.27s.14,3.84,1.42,2.84,1.7-7.52.57-8.37S191.48,159.29,191.48,161.27Z"
            style="fill: rgb(38, 50, 56); stroke: rgb(38, 50, 56); stroke-linecap: round; stroke-linejoin: round; stroke-width: 1.16634px; transform-origin: 192.803px 159.954px;"
            id="elsg9sxl4r8om" class="animable"></path>
        <path d="M216.11,161.27s.15,3.84,1.42,2.84,1.71-7.52.57-8.37S216.11,159.29,216.11,161.27Z"
            style="fill: rgb(38, 50, 56); stroke: rgb(38, 50, 56); stroke-linecap: round; stroke-linejoin: round; stroke-width: 1.16634px; transform-origin: 217.434px 159.954px;"
            id="elrya6fy3z19o" class="animable"></path>
        <path
            d="M191.48,158.15s.43.35.42.52c1.85,1,6.1,2.84,13,3.21a26.56,26.56,0,0,0,14-3.43c0-.51,0-.81,0-.82-.17-4.47-3.49-7.45-7.6-8.59a19.57,19.57,0,0,0-12.24.61,12,12,0,0,0-5.07,3.65C193.48,153.86,190.78,157.59,191.48,158.15Z"
            style="fill: rgb(76, 76, 76); stroke: rgb(38, 50, 56); stroke-linecap: round; stroke-linejoin: round; stroke-width: 1.16634px; transform-origin: 205.132px 155.117px;"
            id="elzn3g4jyk6m" class="animable"></path>
        <path
            d="M191.92,158.4a45.19,45.19,0,0,0,13,.95c8.21-.38,13.92-.95,13.92-.95a22.64,22.64,0,0,1-13.8,6.06A15.14,15.14,0,0,1,191.92,158.4Z"
            style="fill: rgb(76, 76, 76); stroke: rgb(38, 50, 56); stroke-linecap: round; stroke-linejoin: round; stroke-width: 1.16634px; transform-origin: 205.38px 161.446px;"
            id="eltot63bbiq4f" class="animable"></path>
        <polygon points="170.96 215.78 172.29 225.34 182.62 227.82 193.13 223.62 192.37 215.01 170.96 215.78"
            style="fill: rgb(38, 50, 56); stroke: rgb(38, 50, 56); stroke-linecap: round; stroke-linejoin: round; stroke-width: 1.16634px; transform-origin: 182.045px 221.415px;"
            id="elwf70h8g8w5j" class="animable"></polygon>
        <circle cx="181.95" cy="223.52" r="1.82"
            style="fill: rgb(76, 76, 76); stroke: rgb(38, 50, 56); stroke-linecap: round; stroke-linejoin: round; stroke-width: 1.16634px; transform-origin: 181.95px 223.52px;"
            id="el707rvhf3k4" class="animable"></circle>
        <rect x="173.13" y="261.25" width="60.63" height="9.54"
            style="fill: rgb(76, 76, 76); stroke: rgb(38, 50, 56); stroke-linecap: round; stroke-linejoin: round; stroke-width: 1.16634px; transform-origin: 203.445px 266.02px;"
            id="el6ou98k32q3w" class="animable"></rect>
        <rect x="168.92" y="261.81" width="18.53" height="11.79" rx="2.67"
            style="fill: rgb(76, 76, 76); stroke: rgb(38, 50, 56); stroke-linecap: round; stroke-linejoin: round; stroke-width: 1.16634px; transform-origin: 178.185px 267.705px;"
            id="el4www1p0go6k" class="animable"></rect>
        <rect x="217.2" y="261.81" width="18.53" height="11.79" rx="2.67"
            style="fill: rgb(76, 76, 76); stroke: rgb(38, 50, 56); stroke-linecap: round; stroke-linejoin: round; stroke-width: 1.16634px; transform-origin: 226.465px 267.705px;"
            id="el9mgphrlbsg8" class="animable"></rect>
        <rect x="197.83" y="261.81" width="13.19" height="8.42"
            style="fill: rgb(255, 255, 255); stroke: rgb(38, 50, 56); stroke-linecap: round; stroke-linejoin: round; stroke-width: 1.16634px; transform-origin: 204.425px 266.02px;"
            id="elrfwxlc0btwf" class="animable"></rect>
        <path d="M156.28,241.32s-8.42-.56-11.51-5.9"
            style="fill: none; stroke: rgb(38, 50, 56); stroke-linecap: round; stroke-linejoin: round; stroke-width: 1.16634px; transform-origin: 150.525px 238.37px;"
            id="elyyie3mu1ll" class="animable"></path>
        <ellipse cx="249.9" cy="202.02" rx="13.9" ry="14.6"
            style="fill: rgb(0, 210, 210); stroke: rgb(38, 50, 56); stroke-linecap: round; stroke-linejoin: round; stroke-width: 1.16634px; transform-origin: 249.9px 202.02px;"
            id="eloq71c8l9cu" class="animable"></ellipse>
        <ellipse cx="249.9" cy="194.63" rx="10.88" ry="9.75"
            style="fill: rgb(0, 210, 210); stroke: rgb(38, 50, 56); stroke-linecap: round; stroke-linejoin: round; stroke-width: 1.16634px; transform-origin: 249.9px 194.63px;"
            id="elx9f3ukamd1k" class="animable"></ellipse>
        <ellipse cx="249.9" cy="187.46" rx="10.88" ry="9.75"
            style="fill: rgb(204, 204, 204); stroke: rgb(38, 50, 56); stroke-linecap: round; stroke-linejoin: round; stroke-width: 1.16634px; transform-origin: 249.9px 187.46px;"
            id="elxi56sg9olgk" class="animable"></ellipse>
        <path
            d="M232.42,166.44s.19,14.38.92,18.62,3.69,9.77,7.75,9.77a25.53,25.53,0,0,0,7.93-1.47s4.79,2.58,9.4,1.84,3.87-7.19,3.87-10-.55-23.6-.55-23.6.37-2-1.48-2.39a15.8,15.8,0,0,0-2.76-.37v-4.43a3.36,3.36,0,0,0-3.14-1.47c-2.39,0-2.58.55-2.58.55v-4.06s-2-3.23-4.61-1.66a3.68,3.68,0,0,0-1.84,2.95l-.19,3.88s-4.42-1.66-4.79.92S239.24,174,239.24,174a40.86,40.86,0,0,0-1.47-7.38C236.85,164.22,232.42,164.22,232.42,166.44Z"
            style="fill: rgb(204, 204, 204); stroke: rgb(38, 50, 56); stroke-linecap: round; stroke-linejoin: round; stroke-width: 1.16634px; transform-origin: 247.377px 171.336px;"
            id="el3n74zwrwg6s" class="animable"></path>
        <line x1="245.14" y1="154.64" x2="245.51" y2="171.6"
            style="fill: none; stroke: rgb(38, 50, 56); stroke-linecap: round; stroke-linejoin: round; stroke-width: 1.16634px; transform-origin: 245.325px 163.12px;"
            id="eldt6yh80fdt" class="animable"></line>
        <line x1="251.78" y1="153.53" x2="251.97" y2="171.78"
            style="fill: none; stroke: rgb(38, 50, 56); stroke-linecap: round; stroke-linejoin: round; stroke-width: 1.16634px; transform-origin: 251.875px 162.655px;"
            id="elb7wsncx48vc" class="animable"></line>
        <line x1="257.5" y1="158.88" x2="257.13" y2="171.6"
            style="fill: none; stroke: rgb(38, 50, 56); stroke-linecap: round; stroke-linejoin: round; stroke-width: 1.16634px; transform-origin: 257.315px 165.24px;"
            id="ele6winpzex75" class="animable"></line>
        <line x1="242.75" y1="171.42" x2="259.53" y2="172.15"
            style="fill: none; stroke: rgb(38, 50, 56); stroke-linecap: round; stroke-linejoin: round; stroke-width: 1.16634px; transform-origin: 251.14px 171.785px;"
            id="elyvvwq9rbwc" class="animable"></line>
        <path d="M239.24,174a4.51,4.51,0,0,0,1.81,3.58c1.82,1.14,5.92,4.1,6.37,8.88"
            style="fill: none; stroke: rgb(38, 50, 56); stroke-linecap: round; stroke-linejoin: round; stroke-width: 1.16634px; transform-origin: 243.33px 180.23px;"
            id="elj6l82jacl09" class="animable"></path>
    </g>
    <g id="freepik--Text--inject-7" class="animable" style="transform-origin: 369.94px 197.85px;">
  <path d="M 213.83 88.285 L 213.83 47.965 L 244.518 47.965 Q 246.702 47.965 248.522 49.057 Q 250.342 50.149 251.462 51.969 Q 252.582 53.789 252.582 56.029 L 252.582 63.757 Q 252.582 64.485 252.47 65.129 Q 252.358 65.773 252.134 66.389 Q 253.03 67.565 253.59 68.937 Q 254.15 70.309 254.15 71.709 L 254.15 80.221 Q 254.15 82.461 253.03 84.281 Q 251.91 86.101 250.09 87.193 Q 248.27 88.285 246.03 88.285 L 213.83 88.285 Z M 222.23 80.165 L 245.638 80.165 Q 245.806 80.165 245.89 80.081 Q 245.974 79.997 245.974 79.829 L 245.974 72.157 Q 245.974 72.045 245.89 71.933 Q 245.806 71.821 245.638 71.821 L 222.23 71.821 Q 222.062 71.821 221.978 71.933 Q 221.894 72.045 221.894 72.157 L 221.894 79.829 Q 221.894 79.997 221.978 80.081 Q 222.062 80.165 222.23 80.165 Z M 222.23 63.701 L 244.07 63.701 Q 244.182 63.701 244.294 63.617 Q 244.406 63.533 244.406 63.421 L 244.406 56.421 Q 244.406 56.253 244.294 56.169 Q 244.182 56.085 244.07 56.085 L 222.23 56.085 Q 222.062 56.085 221.978 56.169 Q 221.894 56.253 221.894 56.421 L 221.894 63.421 Q 221.894 63.533 221.978 63.617 Q 222.062 63.701 222.23 63.701 Z" style="fill: rgb(0, 210, 210); text-transform: uppercase; white-space: pre;"/>
  <path d="M 260.352 88.285 L 260.352 56.029 Q 260.352 53.789 261.444 51.969 Q 262.536 50.149 264.356 49.057 Q 266.176 47.965 268.416 47.965 L 292.552 47.965 Q 294.792 47.965 296.612 49.057 Q 298.432 50.149 299.552 51.969 Q 300.672 53.789 300.672 56.029 L 300.672 88.285 L 292.496 88.285 L 292.496 75.013 L 268.416 75.013 L 268.416 88.285 L 260.352 88.285 Z M 268.416 66.949 L 292.496 66.949 L 292.496 56.421 Q 292.496 56.253 292.412 56.169 Q 292.328 56.085 292.16 56.085 L 268.752 56.085 Q 268.584 56.085 268.5 56.169 Q 268.416 56.253 268.416 56.421 L 268.416 66.949 Z" style="fill: rgb(0, 210, 210); text-transform: uppercase; white-space: pre;"/>
  <path d="M 307.068 88.285 L 307.068 47.965 L 315.636 47.965 L 339.212 76.077 L 339.212 47.965 L 347.388 47.965 L 347.388 88.285 L 338.82 88.285 L 315.132 60.061 L 315.132 88.285 Z" style="fill: rgb(0, 210, 210); text-transform: uppercase; white-space: pre;"/>
  <path d="M 353.646 88.285 L 353.646 47.965 L 362.214 47.965 L 385.79 76.077 L 385.79 47.965 L 393.966 47.965 L 393.966 88.285 L 385.398 88.285 L 361.71 60.061 L 361.71 88.285 Z" style="fill: rgb(0, 210, 210); text-transform: uppercase; white-space: pre;"/>
  <path d="M 400.352 88.285 L 400.352 47.965 L 437.536 47.965 L 437.536 56.085 L 408.528 56.085 L 408.528 64.037 L 431.88 64.037 L 431.88 72.213 L 408.528 72.213 L 408.528 80.165 L 437.536 80.165 L 437.536 88.285 Z" style="fill: rgb(0, 210, 210); text-transform: uppercase; white-space: pre;"/>
  <path d="M 443.258 88.285 L 443.258 47.965 L 475.458 47.965 Q 477.698 47.965 479.518 49.057 Q 481.338 50.149 482.458 51.969 Q 483.578 53.789 483.578 56.029 L 483.578 80.221 Q 483.578 82.461 482.458 84.281 Q 481.338 86.101 479.518 87.193 Q 477.698 88.285 475.458 88.285 Z M 451.602 80.165 L 475.066 80.165 Q 475.234 80.165 475.318 80.081 Q 475.402 79.997 475.402 79.829 L 475.402 56.421 Q 475.402 56.253 475.318 56.169 Q 475.234 56.085 475.066 56.085 L 451.602 56.085 Q 451.49 56.085 451.378 56.169 Q 451.266 56.253 451.266 56.421 L 451.266 79.829 Q 451.266 79.997 451.378 80.081 Q 451.49 80.165 451.602 80.165 Z" style="fill: rgb(0, 210, 210); text-transform: uppercase; white-space: pre;"/>

    </g>
    <g id="freepik--security-barrier--inject-7" class="animable" style="transform-origin: 232.12px 369.86px;">
        <polygon points="86.87 446.5 72.61 446.5 91.62 313.99 105.88 313.99 86.87 446.5"
            style="fill: rgb(38, 50, 56); stroke: rgb(38, 50, 56); stroke-miterlimit: 10; stroke-width: 1.16634px; transform-origin: 89.245px 380.245px;"
            id="el338ajsdojbm" class="animable"></polygon>
        <polygon points="115.39 446.5 129.64 446.5 110.63 313.99 96.38 313.99 115.39 446.5"
            style="fill: rgb(255, 255, 255); stroke: rgb(38, 50, 56); stroke-miterlimit: 10; stroke-width: 1.16634px; transform-origin: 113.01px 380.245px;"
            id="elw0ivniasyi9" class="animable"></polygon>
        <polygon points="289.18 446.5 274.93 446.5 293.93 313.99 308.19 313.99 289.18 446.5"
            style="fill: rgb(38, 50, 56); stroke: rgb(38, 50, 56); stroke-miterlimit: 10; stroke-width: 1.16634px; transform-origin: 291.56px 380.245px;"
            id="elki0q2de2t4e" class="animable"></polygon>
        <polygon points="317.7 446.5 331.95 446.5 312.94 313.99 298.69 313.99 317.7 446.5"
            style="fill: rgb(255, 255, 255); stroke: rgb(38, 50, 56); stroke-miterlimit: 10; stroke-width: 1.16634px; transform-origin: 315.32px 380.245px;"
            id="eldrocyk264bp" class="animable"></polygon>
        <rect x="55.73" y="293.21" width="271.93" height="26.36"
            style="fill: rgb(0, 210, 210); stroke: rgb(38, 50, 56); stroke-miterlimit: 10; stroke-width: 1.16634px; transform-origin: 191.695px 306.39px;"
            id="el0uuiolo2wljl" class="animable"></rect>
        <rect x="62.36" y="293.21" width="271.93" height="26.36"
            style="fill: rgb(0, 210, 210); stroke: rgb(38, 50, 56); stroke-miterlimit: 10; stroke-width: 1.16634px; transform-origin: 198.325px 306.39px;"
            id="el6a4oedmiq86" class="animable"></rect>
        <polygon points="66.81 319.57 89.89 319.57 101.82 293.21 78.74 293.21 66.81 319.57"
            style="fill: rgb(38, 50, 56); transform-origin: 84.315px 306.39px;" id="elopssjspssh9" class="animable">
        </polygon>
        <polygon points="158.17 293.21 135.09 293.21 123.16 319.57 146.24 319.57 158.17 293.21"
            style="fill: rgb(38, 50, 56); transform-origin: 140.665px 306.39px;" id="eluxpw0v9k9sn" class="animable">
        </polygon>
        <polygon points="327.21 293.21 304.13 293.21 292.21 319.57 315.29 319.57 327.21 293.21"
            style="fill: rgb(38, 50, 56); transform-origin: 309.71px 306.39px;" id="el18n9rb27n85" class="animable">
        </polygon>
        <polygon points="270.87 293.21 247.78 293.21 235.86 319.57 258.94 319.57 270.87 293.21"
            style="fill: rgb(38, 50, 56); transform-origin: 253.365px 306.39px;" id="elqlkosswngx" class="animable">
        </polygon>
        <polygon points="214.52 293.21 191.44 293.21 179.51 319.57 202.59 319.57 214.52 293.21"
            style="fill: rgb(38, 50, 56); transform-origin: 197.015px 306.39px;" id="elg3tip0ynbsb" class="animable">
        </polygon>
        <line x1="332.8" y1="304.9" x2="287.8" y2="304.9"
            style="fill: none; stroke: rgb(38, 50, 56); stroke-miterlimit: 10; stroke-width: 1.16634px; transform-origin: 310.3px 304.9px;"
            id="elwla1g2v8fkh" class="animable"></line>
        <line x1="332.01" y1="309.31" x2="324.91" y2="309.31"
            style="fill: none; stroke: rgb(38, 50, 56); stroke-miterlimit: 10; stroke-width: 1.16634px; transform-origin: 328.46px 309.31px;"
            id="elpbig0cama68" class="animable"></line>
        <line x1="61.21" y1="308.21" x2="106.21" y2="308.21"
            style="fill: none; stroke: rgb(38, 50, 56); stroke-miterlimit: 10; stroke-width: 1.16634px; transform-origin: 83.71px 308.21px;"
            id="el0zw64sdpz1f" class="animable"></line>
        <line x1="62" y1="303.25" x2="118.84" y2="303.25"
            style="fill: none; stroke: rgb(38, 50, 56); stroke-miterlimit: 10; stroke-width: 1.16634px; transform-origin: 90.42px 303.25px;"
            id="elsvlopqmg73m" class="animable"></line>
        <rect x="331.37" y="440.72" width="77.14" height="5.79"
            style="fill: rgb(38, 50, 56); stroke: rgb(38, 50, 56); stroke-linecap: round; stroke-linejoin: round; stroke-width: 1.16634px; transform-origin: 369.94px 443.615px;"
            id="el4ygi8mzfdul" class="animable"></rect>
        <polygon points="395.49 440.56 344.39 440.56 364.42 331.6 375.46 331.6 395.49 440.56"
            style="fill: rgb(0, 210, 210); stroke: rgb(38, 50, 56); stroke-linecap: round; stroke-linejoin: round; stroke-width: 1.16634px; transform-origin: 369.94px 386.08px;"
            id="el9007y0p0yfp" class="animable"></polygon>
        <polygon points="356.98 372.1 382.91 372.1 380.42 358.6 359.46 358.6 356.98 372.1"
            style="fill: rgb(255, 255, 255); stroke: rgb(38, 50, 56); stroke-linecap: round; stroke-linejoin: round; stroke-width: 1.16634px; transform-origin: 369.945px 365.35px;"
            id="el8lm1fxs9plp" class="animable"></polygon>
        <line x1="387.81" y1="422.37" x2="389.09" y2="429.82"
            style="fill: rgb(0, 210, 210); stroke: rgb(38, 50, 56); stroke-linecap: round; stroke-linejoin: round; stroke-width: 1.16634px; transform-origin: 388.45px 426.095px;"
            id="elrl2tr79bpa" class="animable"></line>
        <line x1="373.22" y1="337.62" x2="386.2" y2="413"
            style="fill: rgb(0, 210, 210); stroke: rgb(38, 50, 56); stroke-linecap: round; stroke-linejoin: round; stroke-width: 1.16634px; transform-origin: 379.71px 375.31px;"
            id="el6zaxhsq0spv" class="animable"></line>
    </g>
    <g id="freepik--Floor--inject-7" class="animable" style="transform-origin: 248.145px 446.5px;">
        <line x1="450.01" y1="446.5" x2="456.92" y2="446.5"
            style="fill: none; stroke: rgb(38, 50, 56); stroke-linecap: round; stroke-linejoin: round; stroke-width: 1.16634px; transform-origin: 453.465px 446.5px;"
            id="elj5hvjz6yfbq" class="animable"></line>
        <line x1="39.37" y1="446.5" x2="440.36" y2="446.5"
            style="fill: none; stroke: rgb(38, 50, 56); stroke-linecap: round; stroke-linejoin: round; stroke-width: 1.16634px; transform-origin: 239.865px 446.5px;"
            id="el76c6q8tmh4l" class="animable"></line>
    </g>
    <defs>
        <filter id="active" height="200%">
            <feMorphology in="SourceAlpha" result="DILATED" operator="dilate" radius="2"></feMorphology>
            <feFlood flood-color="#32DFEC" flood-opacity="1" result="PINK"></feFlood>
            <feComposite in="PINK" in2="DILATED" operator="in" result="OUTLINE"></feComposite>
            <feMerge>
                <feMergeNode in="OUTLINE"></feMergeNode>
                <feMergeNode in="SourceGraphic"></feMergeNode>
            </feMerge>
        </filter>
        <filter id="hover" height="200%">
            <feMorphology in="SourceAlpha" result="DILATED" operator="dilate" radius="2"></feMorphology>
            <feFlood flood-color="#ff0000" flood-opacity="0.5" result="PINK"></feFlood>
            <feComposite in="PINK" in2="DILATED" operator="in" result="OUTLINE"></feComposite>
            <feMerge>
                <feMergeNode in="OUTLINE"></feMergeNode>
                <feMergeNode in="SourceGraphic"></feMergeNode>
            </feMerge>
            <feColorMatrix type="matrix"
                values="0   0   0   0   0                0   1   0   0   0                0   0   0   0   0                0   0   0   1   0 ">
            </feColorMatrix>
        </filter>
    </defs>
</svg>