<svg id="visual" viewBox="0 0 1000 1000" width="1000" height="1000" xmlns="http://www.w3.org/2000/svg" xmlns:xlink="http://www.w3.org/1999/xlink" version="1.1"><g stroke-width="1" stroke-linejoin="bevel"><path d="M534 511L564 495L528 432Z" fill="#006969" stroke="#006969"></path><path d="M564 495L567 373L528 432Z" fill="#005050" stroke="#005050"></path><path d="M634 576L664 532L564 495Z" fill="#007272" stroke="#007272"></path><path d="M564 495L710 389L567 373Z" fill="#008484" stroke="#008484"></path><path d="M534 511L634 576L564 495Z" fill="#005050" stroke="#005050"></path><path d="M673 311L560 320L567 373Z" fill="#005050" stroke="#005050"></path><path d="M567 373L516 287L528 432Z" fill="#008484" stroke="#008484"></path><path d="M377 374L386 522L528 432Z" fill="#006161" stroke="#006161"></path><path d="M528 432L386 522L534 511Z" fill="#006969" stroke="#006969"></path><path d="M534 511L516 628L634 576Z" fill="#003838" stroke="#003838"></path><path d="M386 522L516 628L534 511Z" fill="#004848" stroke="#004848"></path><path d="M425 302L377 374L528 432Z" fill="#003030" stroke="#003030"></path><path d="M560 320L516 287L567 373Z" fill="#008484" stroke="#008484"></path><path d="M364 587L504 664L516 628Z" fill="#008484" stroke="#008484"></path><path d="M516 628L575 670L634 576Z" fill="#006161" stroke="#006161"></path><path d="M664 532L710 389L564 495Z" fill="#006969" stroke="#006969"></path><path d="M560 320L517 215L516 287Z" fill="#006161" stroke="#006161"></path><path d="M516 287L425 302L528 432Z" fill="#006161" stroke="#006161"></path><path d="M504 664L575 670L516 628Z" fill="#003838" stroke="#003838"></path><path d="M634 576L708 584L664 532Z" fill="#004040" stroke="#004040"></path><path d="M299 505L364 587L386 522Z" fill="#006161" stroke="#006161"></path><path d="M386 522L364 587L516 628Z" fill="#003030" stroke="#003030"></path><path d="M575 670L708 584L634 576Z" fill="#005858" stroke="#005858"></path><path d="M664 532L800 483L710 389Z" fill="#005050" stroke="#005050"></path><path d="M710 389L673 311L567 373Z" fill="#007b7b" stroke="#007b7b"></path><path d="M315 260L325 412L377 374Z" fill="#005858" stroke="#005858"></path><path d="M377 374L325 412L386 522Z" fill="#003838" stroke="#003838"></path><path d="M325 412L299 505L386 522Z" fill="#008484" stroke="#008484"></path><path d="M627 185L517 215L560 320Z" fill="#007272" stroke="#007272"></path><path d="M516 287L517 215L425 302Z" fill="#005858" stroke="#005858"></path><path d="M708 584L800 483L664 532Z" fill="#006161" stroke="#006161"></path><path d="M710 389L825 294L673 311Z" fill="#005858" stroke="#005858"></path><path d="M290 634L413 720L364 587Z" fill="#003030" stroke="#003030"></path><path d="M364 587L413 720L504 664Z" fill="#007272" stroke="#007272"></path><path d="M623 813L661 771L575 670Z" fill="#006969" stroke="#006969"></path><path d="M800 483L802 404L710 389Z" fill="#003030" stroke="#003030"></path><path d="M722 730L765 630L708 584Z" fill="#006969" stroke="#006969"></path><path d="M708 584L765 630L800 483Z" fill="#004848" stroke="#004848"></path><path d="M722 730L708 584L575 670Z" fill="#005858" stroke="#005858"></path><path d="M299 505L290 634L364 587Z" fill="#003030" stroke="#003030"></path><path d="M325 412L236 491L299 505Z" fill="#003030" stroke="#003030"></path><path d="M299 505L179 584L290 634Z" fill="#005858" stroke="#005858"></path><path d="M175 369L236 491L325 412Z" fill="#004848" stroke="#004848"></path><path d="M734 216L627 185L673 311Z" fill="#005858" stroke="#005858"></path><path d="M673 311L627 185L560 320Z" fill="#005050" stroke="#005050"></path><path d="M398 194L315 260L425 302Z" fill="#006161" stroke="#006161"></path><path d="M425 302L315 260L377 374Z" fill="#006969" stroke="#006969"></path><path d="M398 194L425 302L517 215Z" fill="#006969" stroke="#006969"></path><path d="M520 109L398 194L517 215Z" fill="#005858" stroke="#005858"></path><path d="M661 771L722 730L575 670Z" fill="#006969" stroke="#006969"></path><path d="M290 634L281 676L413 720Z" fill="#006969" stroke="#006969"></path><path d="M162 671L281 676L290 634Z" fill="#004848" stroke="#004848"></path><path d="M825 294L734 216L673 311Z" fill="#007b7b" stroke="#007b7b"></path><path d="M504 809L575 670L504 664Z" fill="#003838" stroke="#003838"></path><path d="M722 730L766 699L765 630Z" fill="#005050" stroke="#005050"></path><path d="M765 630L900 528L800 483Z" fill="#004848" stroke="#004848"></path><path d="M431 822L504 809L413 720Z" fill="#007272" stroke="#007272"></path><path d="M413 720L504 809L504 664Z" fill="#006969" stroke="#006969"></path><path d="M891 363L825 294L802 404Z" fill="#007b7b" stroke="#007b7b"></path><path d="M802 404L825 294L710 389Z" fill="#004848" stroke="#004848"></path><path d="M398 194L320 200L315 260Z" fill="#004040" stroke="#004040"></path><path d="M186 317L175 369L325 412Z" fill="#003030" stroke="#003030"></path><path d="M661 771L779 837L722 730Z" fill="#006161" stroke="#006161"></path><path d="M722 730L779 837L766 699Z" fill="#003838" stroke="#003838"></path><path d="M504 809L623 813L575 670Z" fill="#005858" stroke="#005858"></path><path d="M581 62L520 109L627 185Z" fill="#006161" stroke="#006161"></path><path d="M627 185L520 109L517 215Z" fill="#003838" stroke="#003838"></path><path d="M398 194L318 114L320 200Z" fill="#004848" stroke="#004848"></path><path d="M308 824L431 822L413 720Z" fill="#007b7b" stroke="#007b7b"></path><path d="M504 809L576 867L623 813Z" fill="#003838" stroke="#003838"></path><path d="M87 506L179 584L236 491Z" fill="#003838" stroke="#003838"></path><path d="M236 491L179 584L299 505Z" fill="#007272" stroke="#007272"></path><path d="M281 676L308 824L413 720Z" fill="#005050" stroke="#005050"></path><path d="M186 317L325 412L315 260Z" fill="#005050" stroke="#005050"></path><path d="M899 614L900 528L765 630Z" fill="#003030" stroke="#003030"></path><path d="M800 483L891 363L802 404Z" fill="#004040" stroke="#004040"></path><path d="M900 528L891 363L800 483Z" fill="#007b7b" stroke="#007b7b"></path><path d="M891 363L866 295L825 294Z" fill="#008484" stroke="#008484"></path><path d="M825 294L781 187L734 216Z" fill="#005858" stroke="#005858"></path><path d="M866 295L781 187L825 294Z" fill="#004040" stroke="#004040"></path><path d="M734 216L733 71L627 185Z" fill="#008484" stroke="#008484"></path><path d="M207 217L186 317L315 260Z" fill="#007272" stroke="#007272"></path><path d="M894 735L899 614L766 699Z" fill="#005050" stroke="#005050"></path><path d="M766 699L899 614L765 630Z" fill="#007b7b" stroke="#007b7b"></path><path d="M465 902L576 867L504 809Z" fill="#005050" stroke="#005050"></path><path d="M713 878L779 837L661 771Z" fill="#005050" stroke="#005050"></path><path d="M520 109L397 92L398 194Z" fill="#004848" stroke="#004848"></path><path d="M320 200L207 217L315 260Z" fill="#008484" stroke="#008484"></path><path d="M733 71L581 62L627 185Z" fill="#006969" stroke="#006969"></path><path d="M520 109L429 0L397 92Z" fill="#004848" stroke="#004848"></path><path d="M318 114L207 217L320 200Z" fill="#006161" stroke="#006161"></path><path d="M66 260L105 437L175 369Z" fill="#004040" stroke="#004040"></path><path d="M397 92L318 114L398 194Z" fill="#004848" stroke="#004848"></path><path d="M165 784L308 824L281 676Z" fill="#005858" stroke="#005858"></path><path d="M431 822L465 902L504 809Z" fill="#007b7b" stroke="#007b7b"></path><path d="M138 684L162 671L92 596Z" fill="#004040" stroke="#004040"></path><path d="M179 584L162 671L290 634Z" fill="#003030" stroke="#003030"></path><path d="M66 260L175 369L186 317Z" fill="#003030" stroke="#003030"></path><path d="M175 369L105 437L236 491Z" fill="#003838" stroke="#003838"></path><path d="M308 824L378 877L431 822Z" fill="#008484" stroke="#008484"></path><path d="M378 877L465 902L431 822Z" fill="#004848" stroke="#004848"></path><path d="M713 878L623 813L576 867Z" fill="#005858" stroke="#005858"></path><path d="M713 878L661 771L623 813Z" fill="#008484" stroke="#008484"></path><path d="M637 1000L713 878L576 867Z" fill="#003030" stroke="#003030"></path><path d="M105 437L87 506L236 491Z" fill="#007b7b" stroke="#007b7b"></path><path d="M779 837L894 735L766 699Z" fill="#003838" stroke="#003838"></path><path d="M92 596L162 671L179 584Z" fill="#006969" stroke="#006969"></path><path d="M162 671L165 784L281 676Z" fill="#005858" stroke="#005858"></path><path d="M781 187L733 71L734 216Z" fill="#005050" stroke="#005050"></path><path d="M838 77L733 71L781 187Z" fill="#004848" stroke="#004848"></path><path d="M87 506L92 596L179 584Z" fill="#008484" stroke="#008484"></path><path d="M1000 575L1000 480L900 528Z" fill="#008484" stroke="#008484"></path><path d="M900 528L1000 431L891 363Z" fill="#007b7b" stroke="#007b7b"></path><path d="M1000 329L935 204L866 295Z" fill="#008484" stroke="#008484"></path><path d="M866 295L935 204L781 187Z" fill="#007b7b" stroke="#007b7b"></path><path d="M1000 575L900 528L899 614Z" fill="#006161" stroke="#006161"></path><path d="M1000 480L1000 431L900 528Z" fill="#005050" stroke="#005050"></path><path d="M581 62L501 0L520 109Z" fill="#004848" stroke="#004848"></path><path d="M397 92L307 0L318 114Z" fill="#005858" stroke="#005858"></path><path d="M568 0L501 0L581 62Z" fill="#005050" stroke="#005050"></path><path d="M686 0L568 0L581 62Z" fill="#007272" stroke="#007272"></path><path d="M1000 681L1000 575L899 614Z" fill="#005050" stroke="#005050"></path><path d="M308 824L310 930L378 877Z" fill="#006969" stroke="#006969"></path><path d="M138 684L165 784L162 671Z" fill="#005050" stroke="#005050"></path><path d="M126 776L165 784L138 684Z" fill="#008484" stroke="#008484"></path><path d="M501 0L429 0L520 109Z" fill="#003838" stroke="#003838"></path><path d="M318 114L200 95L207 217Z" fill="#008484" stroke="#008484"></path><path d="M713 878L773 890L779 837Z" fill="#004040" stroke="#004040"></path><path d="M779 837L921 765L894 735Z" fill="#003030" stroke="#003030"></path><path d="M698 1000L773 890L713 878Z" fill="#007b7b" stroke="#007b7b"></path><path d="M1000 329L866 295L891 363Z" fill="#005858" stroke="#005858"></path><path d="M865 888L921 765L779 837Z" fill="#006969" stroke="#006969"></path><path d="M894 735L1000 681L899 614Z" fill="#007272" stroke="#007272"></path><path d="M1000 431L1000 329L891 363Z" fill="#005858" stroke="#005858"></path><path d="M776 0L686 0L733 71Z" fill="#006161" stroke="#006161"></path><path d="M733 71L686 0L581 62Z" fill="#004040" stroke="#004040"></path><path d="M877 89L838 77L781 187Z" fill="#008484" stroke="#008484"></path><path d="M307 0L200 95L318 114Z" fill="#006161" stroke="#006161"></path><path d="M207 217L66 260L186 317Z" fill="#005858" stroke="#005858"></path><path d="M200 95L134 161L207 217Z" fill="#003838" stroke="#003838"></path><path d="M105 437L0 499L87 506Z" fill="#007b7b" stroke="#007b7b"></path><path d="M0 667L126 776L138 684Z" fill="#005858" stroke="#005858"></path><path d="M195 906L310 930L308 824Z" fill="#004848" stroke="#004848"></path><path d="M195 906L308 824L165 784Z" fill="#003838" stroke="#003838"></path><path d="M378 877L425 1000L465 902Z" fill="#006969" stroke="#006969"></path><path d="M465 902L507 1000L576 867Z" fill="#003838" stroke="#003838"></path><path d="M134 161L66 260L207 217Z" fill="#005050" stroke="#005050"></path><path d="M87 506L0 591L92 596Z" fill="#004040" stroke="#004040"></path><path d="M921 765L1000 681L894 735Z" fill="#003030" stroke="#003030"></path><path d="M1000 115L877 89L935 204Z" fill="#004040" stroke="#004040"></path><path d="M935 204L877 89L781 187Z" fill="#003030" stroke="#003030"></path><path d="M838 77L776 0L733 71Z" fill="#004040" stroke="#004040"></path><path d="M429 0L307 0L397 92Z" fill="#003030" stroke="#003030"></path><path d="M425 1000L507 1000L465 902Z" fill="#006969" stroke="#006969"></path><path d="M902 0L776 0L838 77Z" fill="#005050" stroke="#005050"></path><path d="M0 397L0 499L105 437Z" fill="#003838" stroke="#003838"></path><path d="M92 596L0 667L138 684Z" fill="#006969" stroke="#006969"></path><path d="M798 1000L865 888L773 890Z" fill="#004848" stroke="#004848"></path><path d="M773 890L865 888L779 837Z" fill="#006161" stroke="#006161"></path><path d="M921 765L1000 774L1000 681Z" fill="#004040" stroke="#004040"></path><path d="M1000 329L1000 214L935 204Z" fill="#006161" stroke="#006161"></path><path d="M66 260L0 397L105 437Z" fill="#007272" stroke="#007272"></path><path d="M507 1000L637 1000L576 867Z" fill="#007b7b" stroke="#007b7b"></path><path d="M310 930L425 1000L378 877Z" fill="#006969" stroke="#006969"></path><path d="M123 0L117 124L200 95Z" fill="#004848" stroke="#004848"></path><path d="M200 95L117 124L134 161Z" fill="#006969" stroke="#006969"></path><path d="M134 161L0 205L66 260Z" fill="#007272" stroke="#007272"></path><path d="M66 260L0 266L0 397Z" fill="#008484" stroke="#008484"></path><path d="M0 499L0 591L87 506Z" fill="#005858" stroke="#005858"></path><path d="M85 884L195 906L165 784Z" fill="#003838" stroke="#003838"></path><path d="M310 930L305 1000L425 1000Z" fill="#006161" stroke="#006161"></path><path d="M85 884L165 784L126 776Z" fill="#007b7b" stroke="#007b7b"></path><path d="M637 1000L698 1000L713 878Z" fill="#008484" stroke="#008484"></path><path d="M1000 908L1000 774L921 765Z" fill="#004848" stroke="#004848"></path><path d="M0 591L0 667L92 596Z" fill="#004848" stroke="#004848"></path><path d="M307 0L217 0L200 95Z" fill="#006969" stroke="#006969"></path><path d="M0 205L134 161L117 124Z" fill="#004848" stroke="#004848"></path><path d="M0 205L0 266L66 260Z" fill="#004040" stroke="#004040"></path><path d="M232 1000L305 1000L310 930Z" fill="#005858" stroke="#005858"></path><path d="M1000 214L1000 115L935 204Z" fill="#006969" stroke="#006969"></path><path d="M877 89L902 0L838 77Z" fill="#005050" stroke="#005050"></path><path d="M698 1000L798 1000L773 890Z" fill="#004040" stroke="#004040"></path><path d="M865 888L1000 908L921 765Z" fill="#007272" stroke="#007272"></path><path d="M0 84L0 205L117 124Z" fill="#005858" stroke="#005858"></path><path d="M1000 115L902 0L877 89Z" fill="#006161" stroke="#006161"></path><path d="M65 1000L232 1000L195 906Z" fill="#005858" stroke="#005858"></path><path d="M195 906L232 1000L310 930Z" fill="#003838" stroke="#003838"></path><path d="M0 806L85 884L126 776Z" fill="#004040" stroke="#004040"></path><path d="M217 0L123 0L200 95Z" fill="#004848" stroke="#004848"></path><path d="M0 667L0 806L126 776Z" fill="#007b7b" stroke="#007b7b"></path><path d="M899 1000L1000 908L865 888Z" fill="#006969" stroke="#006969"></path><path d="M798 1000L899 1000L865 888Z" fill="#003030" stroke="#003030"></path><path d="M123 0L0 84L117 124Z" fill="#004848" stroke="#004848"></path><path d="M1000 115L1000 0L902 0Z" fill="#007b7b" stroke="#007b7b"></path><path d="M0 806L0 880L85 884Z" fill="#007272" stroke="#007272"></path><path d="M85 884L65 1000L195 906Z" fill="#006161" stroke="#006161"></path><path d="M0 880L65 1000L85 884Z" fill="#003030" stroke="#003030"></path><path d="M899 1000L1000 1000L1000 908Z" fill="#004040" stroke="#004040"></path><path d="M123 0L0 0L0 84Z" fill="#005858" stroke="#005858"></path><path d="M0 880L0 1000L65 1000Z" fill="#004848" stroke="#004848"></path></g></svg>