<?xml version="1.0" encoding="UTF-8" standalone="no"?>
<!-- Created with Inkscape (http://www.inkscape.org/) -->

<svg
   width="512"
   height="512"
   viewBox="0 0 512 512"
   version="1.1"
   id="svg5"
   xml:space="preserve"
   inkscape:version="1.2 (dc2aeda, 2022-05-15)"
   sodipodi:docname="red2.svg"
   xmlns:inkscape="http://www.inkscape.org/namespaces/inkscape"
   xmlns:sodipodi="http://sodipodi.sourceforge.net/DTD/sodipodi-0.dtd"
   xmlns="http://www.w3.org/2000/svg"
   xmlns:svg="http://www.w3.org/2000/svg"><sodipodi:namedview
     id="namedview7"
     pagecolor="#ffffff"
     bordercolor="#000000"
     borderopacity="0.25"
     inkscape:showpageshadow="2"
     inkscape:pageopacity="0.0"
     inkscape:pagecheckerboard="0"
     inkscape:deskcolor="#d1d1d1"
     inkscape:document-units="px"
     showgrid="false"
     inkscape:zoom="0.61621094"
     inkscape:cx="221.51505"
     inkscape:cy="141.18542"
     inkscape:window-width="1600"
     inkscape:window-height="811"
     inkscape:window-x="0"
     inkscape:window-y="0"
     inkscape:window-maximized="1"
     inkscape:current-layer="layer1"
     showguides="true"><sodipodi:guide
       position="318.0729,26.776545"
       orientation="0,-1"
       id="guide4838"
       inkscape:locked="false" /><sodipodi:guide
       position="103.84944,449.46083"
       orientation="1,0"
       id="guide4840"
       inkscape:locked="false" /><sodipodi:guide
       position="86.009508,7.3026968"
       orientation="0,-1"
       id="guide10897"
       inkscape:locked="false" /></sodipodi:namedview><defs
     id="defs2" /><g
     inkscape:label="Layer 1"
     inkscape:groupmode="layer"
     id="layer1"><path
       style="fill:#00d2d2;fill-opacity:1;stroke:#00d2d2;stroke-width:1.10468;stroke-opacity:1"
       d="m 106.71241,253.52098 0.5302,246.37474 c 0,0 7.79216,12.56108 18.55165,-0.51608 0.58031,-0.7053 -0.15471,-245.97543 -0.15471,-245.97543 0,0 -8.05401,-11.24367 -18.92714,0.11677 z"
       id="path378"
       sodipodi:nodetypes="ccscc" /><g
       id="g4859"
       transform="matrix(1.1046774,0,0,1.1046774,-14.57693,-30.83103)"><path
         style="fill:#00d2d2;fill-opacity:1;stroke:#00d2d2;stroke-width:0.923627;stroke-opacity:1"
         d="m 108.10713,240.25141 267.86536,-0.1 c 0,0 9.10959,-5.38603 -0.53041,-11.92885 -0.70418,-0.47794 -267.43063,-0.14106 -267.43063,-0.14106 0,0 -8.293452,5.98153 0.0958,12.16989 z"
         id="path378-3"
         sodipodi:nodetypes="ccsccc" /><path
         style="fill:#00d2d2;fill-opacity:1;stroke:#00d2d2;stroke-width:0.940947;stroke-opacity:1"
         d="m 107.35233,217.88532 278.39703,-0.0999 c 0,0 9.46775,-5.37845 -0.55127,-11.91207 -0.73186,-0.47727 -277.9452,-0.14086 -277.9452,-0.14086 0,0 -8.619533,5.97311 0.0996,12.15277 z"
         id="path4748"
         sodipodi:nodetypes="ccsccc" /><path
         style="fill:#00d2d2;fill-opacity:1;stroke:#00d2d2;stroke-width:0.952466;stroke-opacity:1"
         d="m 108.08351,197.67645 285.52253,-0.0998 c 0,0 9.71008,-5.37341 -0.56537,-11.90092 -0.7506,-0.47682 -285.05914,-0.14072 -285.05914,-0.14072 0,0 -8.84015,5.96751 0.10215,12.14139 z"
         id="path4750"
         sodipodi:nodetypes="ccsccc" /><path
         style="fill:#00d2d2;fill-opacity:1;stroke:#00d2d2;stroke-width:0.965736;stroke-opacity:1"
         d="m 108.48742,176.93654 293.85123,-0.0997 c 0,0 9.99332,-5.36761 -0.58186,-11.88807 -0.7725,-0.47631 -293.37432,-0.14057 -293.37432,-0.14057 0,0 -9.098016,5.96107 0.10513,12.12829 z"
         id="path4752"
         sodipodi:nodetypes="ccsccc" /><path
         style="fill:#00d2d2;fill-opacity:1;stroke:#00d2d2;stroke-width:0.980438;stroke-opacity:1"
         d="m 108.38384,155.26482 303.22924,-0.0996 c 0,0 10.31225,-5.36118 -0.60043,-11.87384 -0.79716,-0.47574 -302.7371,-0.1404 -302.7371,-0.1404 0,0 -9.388373,5.95393 0.10848,12.11378 z"
         id="path4754"
         sodipodi:nodetypes="ccsccc" /><path
         style="fill:#00d2d2;fill-opacity:1;stroke:#00d2d2;stroke-width:0.980438;stroke-opacity:1"
         d="m 107.35013,134.06942 303.22924,-0.0996 c 0,0 10.31225,-5.36118 -0.60043,-11.87384 -0.79716,-0.47574 -302.7371,-0.1404 -302.7371,-0.1404 0,0 -9.388374,5.95393 0.10848,12.11378 z"
         id="path4756"
         sodipodi:nodetypes="ccsccc" /><path
         style="fill:#00d2d2;fill-opacity:1;stroke:#00d2d2;stroke-width:0.965736;stroke-opacity:1"
         d="m 108.03851,112.87924 293.85123,-0.0997 c 0,0 9.99332,-5.36761 -0.58186,-11.88807 -0.7725,-0.47631 -293.37432,-0.14057 -293.37432,-0.14057 0,0 -9.098016,5.96107 0.10513,12.12829 z"
         id="path4758"
         sodipodi:nodetypes="ccsccc" /><path
         style="fill:#00d2d2;fill-opacity:1;stroke:#00d2d2;stroke-width:0.952466;stroke-opacity:1"
         d="m 107.77388,90.80519 285.52253,-0.0998 c 0,0 9.71008,-5.37341 -0.56537,-11.90092 -0.7506,-0.47682 -285.05914,-0.14072 -285.05914,-0.14072 0,0 -8.840155,5.96751 0.10215,12.14139 z"
         id="path4760"
         sodipodi:nodetypes="ccsccc" /><path
         style="fill:#00d2d2;fill-opacity:1;stroke:#00d2d2;stroke-width:0.940947;stroke-opacity:1"
         d="m 107.64801,68.535776 278.39703,-0.0999 c 0,0 9.46775,-5.37845 -0.55127,-11.91207 -0.73186,-0.47727 -277.9452,-0.14086 -277.9452,-0.14086 0,0 -8.619529,5.97311 0.0996,12.15277 z"
         id="path4762"
         sodipodi:nodetypes="ccsccc" /><path
         style="fill:#00d2d2;fill-opacity:1;stroke:#00d2d2;stroke-width:0.923627;stroke-opacity:1"
         d="m 107.38392,47.80509 267.86536,-0.1 c 0,0 9.10959,-5.38603 -0.53041,-11.92885 -0.70418,-0.47794 -267.43063,-0.14106 -267.43063,-0.14106 0,0 -8.293449,5.98153 0.0958,12.16989 z"
         id="path4764"
         sodipodi:nodetypes="ccsccc" /></g><g
       id="g4847"
       transform="matrix(0.72540574,0.83312585,-0.83312585,0.72540574,286.22968,-75.688219)"><path
         style="fill:#00d2d2;fill-opacity:1;stroke:#00d2d2;stroke-width:1.22475;stroke-opacity:1"
         d="m 187.64254,251.7535 2.06452,79.86615 -55.28475,-38.09316 z"
         id="path4822"
         sodipodi:nodetypes="cccc" /></g><path
       style="fill:#00d2d2;stroke:#00d2d2"
       d="m 170.09801,302.12899 19.03367,-18.36262 164.03679,207.68829 c -1.07876,13.8401 -3.91628,12.38522 -15.64767,13.54377 z"
       id="path8717"
       sodipodi:nodetypes="ccccc" /></g></svg>
