<?xml version="1.0" encoding="UTF-8" standalone="no"?>
<!-- Created with Inkscape (http://www.inkscape.org/) -->

<svg
   width="3000"
   height="1080"
   viewBox="0 0 3000 1080"
   version="1.1"
   id="svg5"
   xml:space="preserve"
   inkscape:version="1.2 (dc2aeda, 2022-05-15)"
   sodipodi:docname="logo_banner.svg"
   xmlns:inkscape="http://www.inkscape.org/namespaces/inkscape"
   xmlns:sodipodi="http://sodipodi.sourceforge.net/DTD/sodipodi-0.dtd"
   xmlns="http://www.w3.org/2000/svg"
   xmlns:svg="http://www.w3.org/2000/svg"><sodipodi:namedview
     id="namedview7"
     pagecolor="#ffffff"
     bordercolor="#000000"
     borderopacity="0.25"
     inkscape:showpageshadow="2"
     inkscape:pageopacity="0.0"
     inkscape:pagecheckerboard="0"
     inkscape:deskcolor="#d1d1d1"
     inkscape:document-units="px"
     showgrid="false"
     inkscape:zoom="0.29212963"
     inkscape:cx="1367.5436"
     inkscape:cy="833.53407"
     inkscape:window-width="1600"
     inkscape:window-height="816"
     inkscape:window-x="0"
     inkscape:window-y="0"
     inkscape:window-maximized="1"
     inkscape:current-layer="layer2" /><defs
     id="defs2"><rect
       x="568.63818"
       y="550.29846"
       width="1329.5248"
       height="503.54382"
       id="rect7263" /><rect
       x="534.57062"
       y="589.33051"
       width="1330.8701"
       height="450.74164"
       id="rect7203" /></defs><g
     inkscape:label="Layer 1"
     inkscape:groupmode="layer"
     id="layer1"><g
       inkscape:label="Layer 1"
       id="layer1-5"
       transform="matrix(2,0,0,2,-155.77465,29.643587)"
       style="display:inline"><path
         style="fill:#00d2d2;fill-opacity:1;stroke:#00d2d2;stroke-width:1.10468;stroke-opacity:1"
         d="m 106.71241,253.52098 0.5302,246.37474 c 0,0 7.79216,12.56108 18.55165,-0.51608 0.58031,-0.7053 -0.15471,-245.97543 -0.15471,-245.97543 0,0 -8.05401,-11.24367 -18.92714,0.11677 z"
         id="path378"
         sodipodi:nodetypes="ccscc" /><g
         id="g4859"
         transform="matrix(1.1046774,0,0,1.1046774,-14.57693,-30.83103)"><path
           style="fill:#00d2d2;fill-opacity:1;stroke:#00d2d2;stroke-width:0.923627;stroke-opacity:1"
           d="m 108.10713,240.25141 267.86536,-0.1 c 0,0 9.10959,-5.38603 -0.53041,-11.92885 -0.70418,-0.47794 -267.43063,-0.14106 -267.43063,-0.14106 0,0 -8.293452,5.98153 0.0958,12.16989 z"
           id="path378-3"
           sodipodi:nodetypes="ccsccc" /><path
           style="fill:#00d2d2;fill-opacity:1;stroke:#00d2d2;stroke-width:0.940947;stroke-opacity:1"
           d="m 107.35233,217.88532 278.39703,-0.0999 c 0,0 9.46775,-5.37845 -0.55127,-11.91207 -0.73186,-0.47727 -277.9452,-0.14086 -277.9452,-0.14086 0,0 -8.619533,5.97311 0.0996,12.15277 z"
           id="path4748"
           sodipodi:nodetypes="ccsccc" /><path
           style="fill:#00d2d2;fill-opacity:1;stroke:#00d2d2;stroke-width:0.952466;stroke-opacity:1"
           d="m 108.08351,197.67645 285.52253,-0.0998 c 0,0 9.71008,-5.37341 -0.56537,-11.90092 -0.7506,-0.47682 -285.05914,-0.14072 -285.05914,-0.14072 0,0 -8.84015,5.96751 0.10215,12.14139 z"
           id="path4750"
           sodipodi:nodetypes="ccsccc" /><path
           style="fill:#00d2d2;fill-opacity:1;stroke:#00d2d2;stroke-width:0.965736;stroke-opacity:1"
           d="m 108.48742,176.93654 293.85123,-0.0997 c 0,0 9.99332,-5.36761 -0.58186,-11.88807 -0.7725,-0.47631 -293.37432,-0.14057 -293.37432,-0.14057 0,0 -9.098016,5.96107 0.10513,12.12829 z"
           id="path4752"
           sodipodi:nodetypes="ccsccc" /><path
           style="fill:#00d2d2;fill-opacity:1;stroke:#00d2d2;stroke-width:0.980438;stroke-opacity:1"
           d="m 108.38384,155.26482 303.22924,-0.0996 c 0,0 10.31225,-5.36118 -0.60043,-11.87384 -0.79716,-0.47574 -302.7371,-0.1404 -302.7371,-0.1404 0,0 -9.388373,5.95393 0.10848,12.11378 z"
           id="path4754"
           sodipodi:nodetypes="ccsccc" /><path
           style="fill:#00d2d2;fill-opacity:1;stroke:#00d2d2;stroke-width:0.980438;stroke-opacity:1"
           d="m 107.35013,134.06942 303.22924,-0.0996 c 0,0 10.31225,-5.36118 -0.60043,-11.87384 -0.79716,-0.47574 -302.7371,-0.1404 -302.7371,-0.1404 0,0 -9.388374,5.95393 0.10848,12.11378 z"
           id="path4756"
           sodipodi:nodetypes="ccsccc" /><path
           style="fill:#00d2d2;fill-opacity:1;stroke:#00d2d2;stroke-width:0.965736;stroke-opacity:1"
           d="m 108.03851,112.87924 293.85123,-0.0997 c 0,0 9.99332,-5.36761 -0.58186,-11.88807 -0.7725,-0.47631 -293.37432,-0.14057 -293.37432,-0.14057 0,0 -9.098016,5.96107 0.10513,12.12829 z"
           id="path4758"
           sodipodi:nodetypes="ccsccc" /><path
           style="fill:#00d2d2;fill-opacity:1;stroke:#00d2d2;stroke-width:0.952466;stroke-opacity:1"
           d="m 107.77388,90.80519 285.52253,-0.0998 c 0,0 9.71008,-5.37341 -0.56537,-11.90092 -0.7506,-0.47682 -285.05914,-0.14072 -285.05914,-0.14072 0,0 -8.840155,5.96751 0.10215,12.14139 z"
           id="path4760"
           sodipodi:nodetypes="ccsccc" /><path
           style="fill:#00d2d2;fill-opacity:1;stroke:#00d2d2;stroke-width:0.940947;stroke-opacity:1"
           d="m 107.64801,68.535776 278.39703,-0.0999 c 0,0 9.46775,-5.37845 -0.55127,-11.91207 -0.73186,-0.47727 -277.9452,-0.14086 -277.9452,-0.14086 0,0 -8.619529,5.97311 0.0996,12.15277 z"
           id="path4762"
           sodipodi:nodetypes="ccsccc" /><path
           style="fill:#00d2d2;fill-opacity:1;stroke:#00d2d2;stroke-width:0.923627;stroke-opacity:1"
           d="m 107.38392,47.80509 267.86536,-0.1 c 0,0 9.10959,-5.38603 -0.53041,-11.92885 -0.70418,-0.47794 -267.43063,-0.14106 -267.43063,-0.14106 0,0 -8.293449,5.98153 0.0958,12.16989 z"
           id="path4764"
           sodipodi:nodetypes="ccsccc" /></g><g
         id="g4847"
         transform="matrix(0.72540574,0.83312585,-0.83312585,0.72540574,286.22968,-75.688219)"><path
           style="fill:#00d2d2;fill-opacity:1;stroke:#00d2d2;stroke-width:1.22475;stroke-opacity:1"
           d="m 187.64254,251.7535 2.06452,79.86615 -55.28475,-38.09316 z"
           id="path4822"
           sodipodi:nodetypes="cccc" /></g><path
         style="fill:#00d2d2;stroke:#00d2d2"
         d="m 170.09801,302.12899 19.03367,-18.36262 164.03679,207.68829 c -1.07876,13.8401 -3.91628,12.38522 -15.64767,13.54377 z"
         id="path8717"
         sodipodi:nodetypes="ccccc" /></g></g><g
     inkscape:groupmode="layer"
     id="layer2"
     inkscape:label="Layer 2"><g
       aria-label="e-Dcrypt"
       id="text7269"
       style="font-size:480px;font-family:Orbitron;-inkscape-font-specification:'Orbitron, @wght=479';font-variation-settings:'wght' 479;fill:#00d2d2;stroke:#00d2d2"><path
         d="m 640.69362,949.41339 q -16.8,0 -30.72,-8.16 -13.92,-8.64 -22.56,-22.56 -8.16,-13.92 -8.16,-30.72 v -155.52 q 0,-16.8 8.16,-30.72 8.64,-13.92 22.56,-22.08 13.92,-8.64 30.72,-8.64 h 160.32 q 16.8,0 30.72,8.64 13.92,8.16 22.08,22.08 8.64,13.92 8.64,30.72 v 102.24 h -234.24 v 52.32 q 0,5.28 3.84,9.6 4.32,3.84 9.6,3.84 h 220.8 v 48.96 h -221.76 z m -12.48,-161.28 h 184.8 v -54.72 q 0,-5.28 -3.84,-9.12 -3.84,-4.32 -9.6,-4.32 h -157.92 q -5.28,0 -9.6,4.32 -3.84,3.84 -3.84,9.12 z"
         id="path254" /><path
         d="m 915.25335,831.81339 v 0 -48.96 h 191.03995 v 48.96 z"
         id="path256" /><path
         d="m 1162.9325,949.41339 v -345.6 h 284.16 q 16.8,0 30.72,8.16 13.92,8.16 22.08,22.56 8.64,13.92 8.64,30.72 v 222.72 q 0,16.8 -8.64,31.2 -8.16,13.92 -22.08,22.08 -13.92,8.16 -30.72,8.16 z m 62.4,-49.44 h 220.32 q 5.76,0 9.6,-3.84 3.84,-3.84 3.84,-9.12 v -220.8 q 0,-5.28 -3.84,-9.12 -3.84,-3.84 -9.6,-3.84 h -220.32 q -5.76,0 -9.6,3.84 -3.84,3.84 -3.84,9.12 v 220.8 q 0,5.28 3.84,9.12 3.84,3.84 9.6,3.84 z"
         id="path258" /><path
         d="m 1621.3324,949.41339 q -16.8,0 -30.72,-8.16 -13.92,-8.64 -22.56,-22.56 -8.16,-13.92 -8.16,-30.72 v -155.52 q 0,-16.8 8.16,-30.72 8.64,-13.92 22.56,-22.08 13.92,-8.64 30.72,-8.64 h 220.8 v 48.96 h -219.84 q -5.28,0 -9.6,4.32 -3.84,3.84 -3.84,9.12 v 153.6 q 0,5.28 3.84,9.6 4.32,3.84 9.6,3.84 h 220.8 v 48.96 h -221.76 z"
         id="path260" /><path
         d="m 1892.5888,949.41339 v 0 -216.96 q 0,-16.8 8.16,-30.72 8.64,-13.92 22.56,-22.08 13.92,-8.64 30.72,-8.64 h 155.52 v 48.96 h -154.56 q -5.28,0 -9.6,4.32 -3.84,3.84 -3.84,9.12 v 216 z"
         id="path262" /><path
         d="m 2184.9083,1056.9334 v 0 -49.92 h 170.88 q 5.76,0 9.6,-3.84 3.84,-3.84001 3.84,-9.60001 v -44.16 h -172.32 q -16.8,0 -30.72,-8.16 -13.92,-8.64 -22.56,-22.56 -8.16,-13.92 -8.16,-30.72 v -216 h 48.96 v 215.04 q 0,5.28 3.84,9.6 4.32,3.84 9.6,3.84 h 157.92 q 5.76,0 9.6,-3.84 3.84,-4.32 3.84,-9.6 v -215.04 h 49.44 v 323.04 q 0,17.28001 -8.16,31.20001 -8.16,13.92 -22.08,22.08 -13.92,8.64 -31.2,8.64 z"
         id="path264" /><path
         d="m 2468.6447,1059.8134 v 0 -388.80001 h 221.76 q 16.8,0 30.72,8.64 13.92,8.16 22.08,22.08 8.64,13.92 8.64,30.72 v 155.52 q 0,16.8 -8.64,30.72 -8.16,13.92 -22.08,22.56 -13.92,8.16 -30.72,8.16 h -172.8 v 110.40001 z m 62.88,-159.36001 h 157.92 q 5.28,0 9.12,-3.84 4.32,-4.32 4.32,-9.6 v -153.6 q 0,-5.28 -4.32,-9.12 -3.84,-4.32 -9.12,-4.32 h -157.92 q -5.28,0 -9.6,4.32 -4.32,3.84 -4.32,9.12 v 153.6 q 0,5.28 4.32,9.6 4.32,3.84 9.6,3.84 z"
         id="path266" /><path
         d="m 2848.3245,949.41339 q -17.28,0 -31.2,-8.16 -13.92,-8.64 -22.08,-22.56 -8.16,-13.92 -8.16,-30.72 v -305.76 h 48.96 v 88.8 h 115.68 v 48.96 h -115.68 v 167.04 q 0,5.28 3.84,9.6 4.32,3.84 9.6,3.84 h 102.24 v 48.96 h -103.2 z"
         id="path268" /></g></g></svg>
